<!--<svg width="54" height="54" version="1.1" xmlns="http://www.w3.org/2000/svg">-->
<!--    <g transform="scale(0.058, -0.058) translate(-50, -850)">-->
<!--        <path-->
<!--            d="M 604 760 Q 576 772 558 756 Q 540 740 484 724 Q 428 708 344 694 Q 260 680 204 680 Q 148 680 200 644 Q 252 608 286 624 Q 320 640 424 664 L 544 696 Q 560 700 558 672 Q 556 644 558 528 Q 560 412 586 302 Q 612 192 650 122 Q 688 52 714 16 Q 740 -20 802 -24 Q 864 -28 948 -16 Q 1032 -4 976 14 Q 920 32 868 52 Q 816 72 760 122 Q 704 172 658 272 Q 612 372 608 516 Q 604 660 638 684 Q 672 708 652 728 Q 632 748 604 760 ZZ"-->
<!--            style='fill:rgb(101,101,101);stroke:rgb(101,101,101);' stroke-width='0'/>-->
<!--    </g>-->
<!--</svg>-->


<svg width="54" height="54" version="1.1" xmlns="http://www.w3.org/2000/svg">
<g transform="scale(0.058, -0.058) translate(-50, -850)">
    <path
        d="M 604 760 Q 576 772 558 756 Q 540 740 484 724 Q 428 708 344 694 Q 260 680 204 680 Q 148 680 200 644 Q 252 608 286 624 Q 320 640 424 664 L 544 696 Q 560 700 558 672 Q 556 644 558 528 Q 560 412 586 302 Q 612 192 650 122 Q 688 52 714 16 Q 740 -20 802 -24 Q 864 -28 948 -16 Q 1032 -4 976 14 Q 920 32 868 52 Q 816 72 760 122 Q 704 172 658 272 Q 612 372 608 516 Q 604 660 638 684 Q 672 708 652 728 Q 632 748 604 760 ZZ"
        style='fill:rgb(101,101,101);stroke:rgb(101,101,101);' stroke-width='0'/>
</g>
</svg>