<!--<svg width="54" height="54" version="1.1" xmlns="http://www.w3.org/2000/svg">-->
<!--    <g transform="scale(0.058, -0.058) translate(-50, -850)">-->
<!--        <path-->
<!--            d="M502,772Q535,748 571,718Q587,705 604,708Q616,709 620,724Q624,740 612,773Q599,807 492,824Q474,827 468,823Q462,819 465,805Q471,792 502,772ZZ"-->
<!--            style='fill:rgb(101,101,101);stroke:rgb(101,101,101);' stroke-width='0'/>-->
<!--    </g>-->
<!--</svg>-->
<!--<svg width="54" height="54" version="1.1" xmlns="http://www.w3.org/2000/svg">-->
<!--    <g transform="scale(0.058, -0.058) translate(-50, -850)">-->
<!--        <path-->
<!--            d="M502,772Q535,748 571,718Q587,705 604,708Q616,709 620,724Q624,740 612,773Q599,807 492,824Q474,827 468,823Q462,819 465,805Q471,792 502,772ZZ"-->
<!--            style='fill:rgb(101,101,101);stroke:rgb(101,101,101);' stroke-width='0'/>-->
<!--        <path-->
<!--            d="M334,584Q379,569 460,581Q763,632 777,643Q787,650 783,660Q776,673 746,681Q716,688 614,657Q470,621 335,613Q334,613 333,612C324,610 325,586 334,584ZZ"-->
<!--            style='fill:rgb(101,101,101);stroke:rgb(101,101,101);' stroke-width='0'/>-->
<!--    </g>-->
<!--</svg>-->
<!--</li><li class='svg'>-->
<!--<svg width="54" height="54" version="1.1" xmlns="http://www.w3.org/2000/svg">-->
<!--    <g transform="scale(0.058, -0.058) translate(-50, -850)">-->
<!--        <path-->
<!--            d="M502,772Q535,748 571,718Q587,705 604,708Q616,709 620,724Q624,740 612,773Q599,807 492,824Q474,827 468,823Q462,819 465,805Q471,792 502,772ZZ"-->
<!--            style='fill:rgb(101,101,101);stroke:rgb(101,101,101);' stroke-width='0'/>-->
<!--        <path-->
<!--            d="M334,584Q379,569 460,581Q763,632 777,643Q787,650 783,660Q776,673 746,681Q716,688 614,657Q470,621 335,613Q334,613 333,612C324,610 325,586 334,584ZZ"-->
<!--            style='fill:rgb(101,101,101);stroke:rgb(101,101,101);' stroke-width='0'/>-->
<!--        <path-->
<!--            d="M333,612Q317,628 286,644Q267,656 253,651Q240,644 247,629Q265,599 261,534Q260,525 259,512Q250,350 203,226Q167,136 84,8Q78,1 76,-5Q73,-17 84,-15Q117,-9 195,103Q211,130 227,160Q293,305 316,480Q325,555 333,581Q334,582 334,584C337,593 340,606 333,612ZZ"-->
<!--            style='fill:rgb(101,101,101);stroke:rgb(101,101,101);' stroke-width='0'/>-->
<!--    </g>-->
<!--</svg>-->
<!--</li><li class='svg'>-->
<!--<svg width="54" height="54" version="1.1" xmlns="http://www.w3.org/2000/svg">-->
<!--    <g transform="scale(0.058, -0.058) translate(-50, -850)">-->
<!--        <path-->
<!--            d="M502,772Q535,748 571,718Q587,705 604,708Q616,709 620,724Q624,740 612,773Q599,807 492,824Q474,827 468,823Q462,819 465,805Q471,792 502,772ZZ"-->
<!--            style='fill:rgb(101,101,101);stroke:rgb(101,101,101);' stroke-width='0'/>-->
<!--        <path-->
<!--            d="M334,584Q379,569 460,581Q763,632 777,643Q787,650 783,660Q776,673 746,681Q716,688 614,657Q470,621 335,613Q334,613 333,612C324,610 325,586 334,584ZZ"-->
<!--            style='fill:rgb(101,101,101);stroke:rgb(101,101,101);' stroke-width='0'/>-->
<!--        <path-->
<!--            d="M333,612Q317,628 286,644Q267,656 253,651Q240,644 247,629Q265,599 261,534Q260,525 259,512Q250,350 203,226Q167,136 84,8Q78,1 76,-5Q73,-17 84,-15Q117,-9 195,103Q211,130 227,160Q293,305 316,480Q325,555 333,581Q334,582 334,584C337,593 340,606 333,612ZZ"-->
<!--            style='fill:rgb(101,101,101);stroke:rgb(101,101,101);' stroke-width='0'/>-->
<!--        <path-->
<!--            d="M597,312Q759,345 766,349Q776,358 771,367Q764,380 732,389Q704,395 599,364C564,355 564,355 546,351Q476,339 392,331Q352,327 380,307Q422,280 485,293Q515,299 547,303C580,309 580,309 597,312ZZ"-->
<!--            style='fill:rgb(101,101,101);stroke:rgb(101,101,101);' stroke-width='0'/>-->
<!--    </g>-->
<!--</svg>-->
<!--</li><li class='svg'>-->
<!--<svg width="54" height="54" version="1.1" xmlns="http://www.w3.org/2000/svg">-->
<!--    <g transform="scale(0.058, -0.058) translate(-50, -850)">-->
<!--        <path-->
<!--            d="M502,772Q535,748 571,718Q587,705 604,708Q616,709 620,724Q624,740 612,773Q599,807 492,824Q474,827 468,823Q462,819 465,805Q471,792 502,772ZZ"-->
<!--            style='fill:rgb(101,101,101);stroke:rgb(101,101,101);' stroke-width='0'/>-->
<!--        <path-->
<!--            d="M334,584Q379,569 460,581Q763,632 777,643Q787,650 783,660Q776,673 746,681Q716,688 614,657Q470,621 335,613Q334,613 333,612C324,610 325,586 334,584ZZ"-->
<!--            style='fill:rgb(101,101,101);stroke:rgb(101,101,101);' stroke-width='0'/>-->
<!--        <path-->
<!--            d="M333,612Q317,628 286,644Q267,656 253,651Q240,644 247,629Q265,599 261,534Q260,525 259,512Q250,350 203,226Q167,136 84,8Q78,1 76,-5Q73,-17 84,-15Q117,-9 195,103Q211,130 227,160Q293,305 316,480Q325,555 333,581Q334,582 334,584C337,593 340,606 333,612ZZ"-->
<!--            style='fill:rgb(101,101,101);stroke:rgb(101,101,101);' stroke-width='0'/>-->
<!--        <path-->
<!--            d="M597,312Q759,345 766,349Q776,358 771,367Q764,380 732,389Q704,395 599,364C564,355 564,355 546,351Q476,339 392,331Q352,327 380,307Q422,280 485,293Q515,299 547,303C580,309 580,309 597,312ZZ"-->
<!--            style='fill:rgb(101,101,101);stroke:rgb(101,101,101);' stroke-width='0'/>-->
<!--        <path-->
<!--            d="M585,105Q592,211 597,312C598,347 598,347 599,364Q603,413 619,478Q623,488 602,504Q566,523 542,527Q526,531 518,522Q511,515 519,499Q543,465 543,440Q544,397 546,351C547,319 547,319 547,303Q547,207 543,101C543,87 585,91 585,105ZZ"-->
<!--            style='fill:rgb(101,101,101);stroke:rgb(101,101,101);' stroke-width='0'/>-->
<!--    </g>-->
<!--</svg>-->
<!--</li><li class='svg'>-->
<svg width="54" height="54" version="1.1" xmlns="http://www.w3.org/2000/svg">
    <g transform="scale(0.058, -0.058) translate(-50, -850)">
        <path
            d="M502,772Q535,748 571,718Q587,705 604,708Q616,709 620,724Q624,740 612,773Q599,807 492,824Q474,827 468,823Q462,819 465,805Q471,792 502,772ZZ"
            style='fill:rgb(101,101,101);stroke:rgb(101,101,101);' stroke-width='0'/>
        <path
            d="M334,584Q379,569 460,581Q763,632 777,643Q787,650 783,660Q776,673 746,681Q716,688 614,657Q470,621 335,613Q334,613 333,612C324,610 325,586 334,584ZZ"
            style='fill:rgb(101,101,101);stroke:rgb(101,101,101);' stroke-width='0'/>
        <path
            d="M333,612Q317,628 286,644Q267,656 253,651Q240,644 247,629Q265,599 261,534Q260,525 259,512Q250,350 203,226Q167,136 84,8Q78,1 76,-5Q73,-17 84,-15Q117,-9 195,103Q211,130 227,160Q293,305 316,480Q325,555 333,581Q334,582 334,584C337,593 340,606 333,612ZZ"
            style='fill:rgb(101,101,101);stroke:rgb(101,101,101);' stroke-width='0'/>
        <path
            d="M597,312Q759,345 766,349Q776,358 771,367Q764,380 732,389Q704,395 599,364C564,355 564,355 546,351Q476,339 392,331Q352,327 380,307Q422,280 485,293Q515,299 547,303C580,309 580,309 597,312ZZ"
            style='fill:rgb(101,101,101);stroke:rgb(101,101,101);' stroke-width='0'/>
        <path
            d="M585,105Q592,211 597,312C598,347 598,347 599,364Q603,413 619,478Q623,488 602,504Q566,523 542,527Q526,531 518,522Q511,515 519,499Q543,465 543,440Q544,397 546,351C547,319 547,319 547,303Q547,207 543,101C543,87 585,91 585,105ZZ"
            style='fill:rgb(101,101,101);stroke:rgb(101,101,101);' stroke-width='0'/>
        <path
            d="M543,101Q428,89 298,75Q276,74 292,55Q307,40 326,34Q348,27 365,32Q515,69 848,70Q867,70 887,69Q909,68 914,77Q921,90 903,105Q846,147 807,140Q725,124 585,105C557,102 557,102 543,101ZZ"
            style='fill:rgb(101,101,101);stroke:rgb(101,101,101);' stroke-width='0'/>
    </g>
</svg>